<svg class="nttd-logo" width="150px" height="26px" viewBox="0 0 340.16 49.6" version="1.1" xmlns="http://www.w3.org/2000/svg" xmlns:xlink="http://www.w3.org/1999/xlink">
        <title>NTT DATA</title>
        <g id="Symbols" stroke="none" stroke-width="1" fill="#6785C1" fill-rule="evenodd">
            <g id="Logo/NTT-white" class="fill-target">
                <path d="M51.58.54V10.75H67.14V49.06h11V10.75H93.73V.54Z"></path>
                <path d="M233,.54H205.22V10.83h27c4,0,5.51,1.81,5.51,6.45V19H215.36c-8.51,0-12.75,4.26-12.75,13.88v2.29c0,9.9,4.39,13.87,13.21,13.87h32.83V17.16C248.65,4.94,244.62.54,233,.54ZM217,38.68c-1.67,0-3.54-.85-3.54-5s1.85-4.89,3.54-4.89h20.77v9.9Z"></path>
                <path d="M324.47.54H296.72V10.83h27c4,0,5.51,1.81,5.51,6.45,0,0,0,1.32,0,1.71H306.86c-8.51,0-12.75,4.26-12.75,13.88v2.29c0,9.9,4.39,13.87,13.21,13.87h32.83V17.16C340.16,4.94,336.12.54,324.47.54Zm-16,38.14c-1.67,0-3.54-.85-3.54-5s1.85-4.89,3.54-4.89h20.77v9.9Z"></path>
                <path d="M97.23.54V10.75h15.56V49.06h11V10.75h15.57V.54Z"></path>
                <path d="M250.87.54V10.75h15.56V49.06h11V10.75H293V.54Z"></path>
                <path d="M198.34,32.05V17.54c0-12.71-4.93-17-16-17H152.78V49h30C194.61,49,198.34,43.18,198.34,32.05Zm-11.25.21c0,4.65-1.57,6.45-5.53,6.45H163.81V10.87h17.75c4,0,5.53,1.81,5.53,6.45Z"></path>
                <path d="M36,37.5c-.23-.45-15-29.14-16.76-32C17.2,2.27,14.67,0,9.82,0,5.33,0,0,2,0,12.8V49.07H10.87V18.81c0-2.17-.14-5.39-.16-6s0-1,.27-1.19.63.11.84.51,13.86,27.41,16.76,32c2.08,3.26,4.61,5.53,9.45,5.53,4.5,0,9.82-2,9.82-12.8V.53H37V30.78c0,2.17.13,5.39.16,6s0,1-.27,1.19S36.25,37.9,36,37.5Z"></path>
            </g>
        </g>
    </svg>